<?xml version="1.0"?>
<svg xmlns="http://www.w3.org/2000/svg" xmlns:xlink="http://www.w3.org/1999/xlink" version="1.1" id="Capa_1" x="0px" y="0px" viewBox="0 0 490 490" style="enable-background:new 0 0 490 490;" xml:space="preserve" width="512px" height="512px"><g><path id="XMLID_1017_" d="M475,85H15c-8.284,0-15,6.716-15,15v180c0,4.205,1.765,8.216,4.864,11.058l120,110  C127.63,403.593,131.247,405,135,405h220c3.753,0,7.37-1.407,10.136-3.942l120-110c3.1-2.842,4.864-6.853,4.864-11.058V100  C490,91.716,483.284,85,475,85z M170,375h-29.165L30,273.401V245h55c46.869,0,85,38.131,85,85V375z M460,273.401L349.165,375H320  v-45c0-46.869,38.131-85,85-85h55V273.401z M460,215h-55c-63.411,0-115,51.589-115,115v45h-90v-45c0-63.411-51.589-115-115-115H30  v-40h430V215z M460,145H30v-30h430V145z" data-original="#000000" class="active-path" data-old_color="#000000" fill="#757575"/></g> </svg>
